<?xml version="1.0" encoding="UTF-8"?>
<svg xmlns="http://www.w3.org/2000/svg" viewBox="0 0 1900 1000" width="1900" height="1000" preserveAspectRatio="xMidYMid meet">
  <!-- US flag simplified: 13 stripes and blue canton with stars grid -->
  <rect width="1900" height="1000" fill="#B22234" />
  <!-- white stripes -->
  <g fill="#FFFFFF">
    <rect y="76.923" width="1900" height="76.923" />
    <rect y="230.769" width="1900" height="76.923" />
    <rect y="384.615" width="1900" height="76.923" />
    <rect y="538.461" width="1900" height="76.923" />
    <rect y="692.307" width="1900" height="76.923" />
    <rect y="846.153" width="1900" height="76.923" />
  </g>
  <!-- blue canton -->
  <rect width="760" height="538.461" fill="#002868" />
  <!-- simplified stars: rows of white stars -->
  <g fill="#FFFFFF" transform="translate(40,40)">
    <!-- 9 rows alternating 6 and 5 stars -->
    <!-- We'll generate a simple grid -->
    <g id="stars">
      <!-- 6-star rows -->
      <!-- generate manually for SVG simplicity -->
      <g transform="translate(0,0)">
        <circle cx="60" cy="40" r="18" />
        <circle cx="180" cy="40" r="18" />
        <circle cx="300" cy="40" r="18" />
        <circle cx="420" cy="40" r="18" />
        <circle cx="540" cy="40" r="18" />
        <circle cx="660" cy="40" r="18" />
      </g>
      <g transform="translate(30,80)">
        <circle cx="60" cy="40" r="18" />
        <circle cx="180" cy="40" r="18" />
        <circle cx="300" cy="40" r="18" />
        <circle cx="420" cy="40" r="18" />
        <circle cx="540" cy="40" r="18" />
      </g>
      <g transform="translate(0,160)">
        <circle cx="60" cy="40" r="18" />
        <circle cx="180" cy="40" r="18" />
        <circle cx="300" cy="40" r="18" />
        <circle cx="420" cy="40" r="18" />
        <circle cx="540" cy="40" r="18" />
        <circle cx="660" cy="40" r="18" />
      </g>
      <g transform="translate(30,240)">
        <circle cx="60" cy="40" r="18" />
        <circle cx="180" cy="40" r="18" />
        <circle cx="300" cy="40" r="18" />
        <circle cx="420" cy="40" r="18" />
        <circle cx="540" cy="40" r="18" />
      </g>
      <g transform="translate(0,320)">
        <circle cx="60" cy="40" r="18" />
        <circle cx="180" cy="40" r="18" />
        <circle cx="300" cy="40" r="18" />
        <circle cx="420" cy="40" r="18" />
        <circle cx="540" cy="40" r="18" />
        <circle cx="660" cy="40" r="18" />
      </g>
      <g transform="translate(30,400)">
        <circle cx="60" cy="40" r="18" />
        <circle cx="180" cy="40" r="18" />
        <circle cx="300" cy="40" r="18" />
        <circle cx="420" cy="40" r="18" />
        <circle cx="540" cy="40" r="18" />
      </g>
      <g transform="translate(0,480)">
        <circle cx="60" cy="40" r="18" />
        <circle cx="180" cy="40" r="18" />
        <circle cx="300" cy="40" r="18" />
        <circle cx="420" cy="40" r="18" />
        <circle cx="540" cy="40" r="18" />
        <circle cx="660" cy="40" r="18" />
      </g>
      <g transform="translate(30,560)">
        <circle cx="60" cy="40" r="18" />
        <circle cx="180" cy="40" r="18" />
        <circle cx="300" cy="40" r="18" />
        <circle cx="420" cy="40" r="18" />
        <circle cx="540" cy="40" r="18" />
      </g>
      <g transform="translate(0,640)">
        <circle cx="60" cy="40" r="18" />
        <circle cx="180" cy="40" r="18" />
        <circle cx="300" cy="40" r="18" />
        <circle cx="420" cy="40" r="18" />
        <circle cx="540" cy="40" r="18" />
        <circle cx="660" cy="40" r="18" />
      </g>
    </g>
  </g>
</svg>
